<svg xmlns="http://www.w3.org/2000/svg" width="1200" height="200" viewBox="0 0 1200 200">
  <defs>
    <linearGradient id="bg" x1="0%" y1="0%" x2="100%" y2="100%">
      <stop offset="0%" style="stop-color:#0B3D2E;stop-opacity:1" />
      <stop offset="100%" style="stop-color:#07261D;stop-opacity:1" />
    </linearGradient>
  </defs>
  <rect width="1200" height="200" fill="url(#bg)"/>
  <rect width="1200" height="5" fill="#FF3621"/>
  <rect x="0" y="195" width="1200" height="5" fill="#FF7033"/>
  <g transform="translate(1080,25) scale(2.6)" opacity="0.12"><path fill="white" d="M.95 14.184L12 20.403l9.919-5.55v2.21L12 22.662l-10.484-5.96-.565.308v.77L12 24l11.05-6.218v-4.317l-.515-.309L12 19.118l-9.867-5.653v-2.21L12 16.805l11.05-6.218V6.32l-.515-.308L12 11.974 2.647 6.681 12 1.388l7.76 4.368.668-.411v-.566L12 0 .95 6.27v.72L12 13.207l9.919-5.55v2.26L12 15.52 1.516 9.56l-.565.308Z"/></g>
  <text x="60" y="70" font-family="Inter, Helvetica, Arial, sans-serif" font-size="20" font-weight="700" fill="#FF7033">LAB 03</text>
  <text x="60" y="120" font-family="Inter, Helvetica, Arial, sans-serif" font-size="40" font-weight="700" fill="white">Genie Agent</text>
  <rect x="60" y="135" width="90" height="4" rx="2" fill="#FF3621"/>
  <text x="60" y="170" font-family="Inter, Helvetica, Arial, sans-serif" font-size="16" font-weight="400" fill="#7FB3A0">Consumindo dados em linguagem natural</text>
</svg>